<svg xmlns="http://www.w3.org/2000/svg" width="1em" height="1em" viewBox="0 0 32 32"
     class="contribution-item-img__2-fih">
    <g transform="translate(4 2.667)" fill="none" fill-rule="evenodd">
        <path fill="#865B45" d="M0 0h6.976l5.49 7.642L17.063 0H24L12 16z"></path>
        <circle fill="#E7C5AC" cx="12" cy="14.667" r="12"></circle>
        <circle fill="#FEDDC7" cx="12" cy="14.667" r="9.333"></circle>
        <path d="M12.239 20.176c.46 0 .902-.066 1.327-.198.425-.132.8-.328 1.122-.587.323-.259.58-.579.77-.96.19-.382.286-.822.286-1.32 0-.646-.171-1.203-.513-1.672-.343-.47-.846-.753-1.511-.851v-.03c.557-.136.992-.422 1.305-.857.313-.435.47-.932.47-1.489 0-.46-.09-.863-.272-1.21a2.547 2.547 0 00-.726-.865 3.232 3.232 0 00-1.056-.521 4.521 4.521 0 00-1.276-.176 4.52 4.52 0 00-1.1.132 3.404 3.404 0 00-.968.403 2.79 2.79 0 00-.762.697 3.181 3.181 0 00-.499.997l1.863.499c.127-.362.33-.643.608-.843.279-.2.594-.301.946-.301.44 0 .797.127 1.071.381.274.255.41.582.41.983 0 .313-.058.562-.175.748a1.17 1.17 0 01-.462.425 1.903 1.903 0 01-.646.191 6.09 6.09 0 01-.74.044h-.455v1.584h.425c.264 0 .533.02.807.059.274.039.52.115.74.227.22.112.402.274.543.484.142.21.213.482.213.814a1.533 1.533 0 01-.52 1.18 1.772 1.772 0 01-.558.33 1.88 1.88 0 01-.667.118c-.47 0-.841-.117-1.115-.352s-.464-.567-.572-.997l-1.877.498c.117.43.288.8.513 1.108.225.308.491.56.8.755.307.196.652.34 1.033.433a5.13 5.13 0 001.218.139z"
              fill="#865B45" fill-rule="nonzero"></path>
    </g>
</svg>